<?xml version="1.0"?>
<svg xmlns="http://www.w3.org/2000/svg" xmlns:xlink="http://www.w3.org/1999/xlink" version="1.1" id="Capa_1" x="0px" y="0px" viewBox="0 0 490.2 490.2" style="enable-background:new 0 0 490.2 490.2;" xml:space="preserve" width="512px" height="512px" class=""><g><g>
	<path d="M469.1,0H156.4c-11.5,0-20.9,9.4-20.9,20.9v114.7H20.9C9.4,135.6,0,145,0,156.5v312.8c0,11.5,9.4,20.9,20.9,20.9h312.8   c11.5,0,20.9-9.4,20.9-20.9V354.5h114.7c11.5,0,20.9-9.4,20.9-20.9V20.9C490,9.4,480.6,0,469.1,0z M312.8,449.3H40.7V177.2h94.9   v156.4c0,11.5,9.4,20.9,20.9,20.9h156.4v94.8H312.8z M312.8,312.8H177.2V177.2h135.5v135.6H312.8z M449.3,312.8h-94.9V156.4   c0-11.5-9.4-20.9-20.9-20.9H177.2V40.7h272.1V312.8z" data-original="#000000" class="active-path" data-old_color="#67646b" fill="#67646b"/>
</g></g> </svg>
