<?xml version="1.0" encoding="iso-8859-1"?>
<!-- Generator: Adobe Illustrator 16.0.0, SVG Export Plug-In . SVG Version: 6.00 Build 0)  -->
<!DOCTYPE svg PUBLIC "-//W3C//DTD SVG 1.1//EN" "http://www.w3.org/Graphics/SVG/1.1/DTD/svg11.dtd">
<svg xmlns="http://www.w3.org/2000/svg" xmlns:xlink="http://www.w3.org/1999/xlink" version="1.1" id="Capa_1" x="0px" y="0px" width="512px" height="512px" viewBox="0 0 484.702 484.703" style="enable-background:new 0 0 484.702 484.703;" xml:space="preserve">
<g>
	<g>
		<path d="M451.655,414.239H33.048C14.798,414.239,0,428.659,0,446.911c0,18.25,14.798,32.67,33.048,32.67h418.607    c18.249,0,33.047-14.421,33.047-32.67C484.702,428.659,469.904,414.239,451.655,414.239z" fill="#FFFFFF"/>
		<path d="M267.352,19.192c-13.861-19.657-37.979-17.842-50.001,0C186.867,64.434,91.051,197.139,91.051,197.139    c-7.234,10.19-6.902,23.929,0.811,33.762c7.716,9.834,20.984,13.42,32.602,8.819l73.499-29.111l-9.704,143.854    c-0.53,7.826,2.224,15.52,7.6,21.237c5.376,5.712,12.887,8.936,20.73,8.89h51.525c7.844,0.046,15.354-3.177,20.729-8.89    c5.376-5.718,8.131-13.412,7.601-21.237l-9.704-143.854l73.499,29.111c11.617,4.602,24.886,1.015,32.602-8.819    c7.713-9.833,8.045-23.571,0.812-33.762C393.651,197.139,298.792,63.774,267.352,19.192z" fill="#FFFFFF"/>
	</g>
</g>
<g>
</g>
<g>
</g>
<g>
</g>
<g>
</g>
<g>
</g>
<g>
</g>
<g>
</g>
<g>
</g>
<g>
</g>
<g>
</g>
<g>
</g>
<g>
</g>
<g>
</g>
<g>
</g>
<g>
</g>
</svg>
